<svg width="49.822mm" height="12.128mm" version="1.1" viewBox="0 0 49.822 12.128" xmlns="http://www.w3.org/2000/svg">
 <g transform="translate(-2.9505 -4.9149)">
  <g stroke-width=".26458" style="font-variant-caps:normal;font-variant-east-asian:normal;font-variant-ligatures:normal;font-variant-numeric:normal" aria-label="TODOER">
   <path d="m11.317 7.0278q0.12418 0 0.21449 0.090311 0.09031 0.090311 0.09031 0.21449v1.1966q0 0.12418-0.09031 0.21449-0.09031 0.090311-0.21449 0.090311h-1.9868v5.7912q0 0.12418-0.090311 0.21449-0.090311 0.09031-0.21449 0.09031h-1.4788q-0.12418 0-0.21449-0.09031-0.090311-0.09031-0.090311-0.21449v-5.7912h-1.9868q-0.12418 0-0.21449-0.090311-0.090311-0.090311-0.090311-0.21449v-1.1966q0-0.12418 0.090311-0.21449 0.090311-0.090311 0.21449-0.090311z" style="font-variant-caps:normal;font-variant-east-asian:normal;font-variant-ligatures:normal;font-variant-numeric:normal"/>
   <path d="m12.243 9.9742q0.033866-0.63218 0.27093-1.1853 0.24836-0.56444 0.68862-0.97085 0.45156-0.41769 1.0837-0.65476 0.64347-0.24836 1.4788-0.24836 0.82409 0 1.4676 0.24836 0.64347 0.23707 1.0837 0.65476 0.45156 0.4064 0.68862 0.97085 0.24836 0.55316 0.28222 1.1853 0.02258 0.48542 0.02258 1.016 0 0.53058-0.02258 0.99342-0.03387 0.63218-0.28222 1.1966-0.23707 0.55316-0.68862 0.97085-0.44027 0.41769-1.0837 0.65476-0.64347 0.23707-1.4676 0.23707-0.83538 0-1.4788-0.23707-0.63218-0.23707-1.0837-0.65476-0.44027-0.41769-0.68862-0.97085-0.23707-0.56444-0.27093-1.1966-0.02258-0.46284-0.02258-0.99342 0-0.53058 0.02258-1.016zm4.9558 1.953q0.01129-0.2032 0.02258-0.45156t0.01129-0.508q0-0.25964-0.01129-0.49671-0.011291-0.24836-0.02258-0.44027-0.022578-0.28222-0.12418-0.51929-0.090311-0.23707-0.27093-0.4064-0.16933-0.18062-0.42898-0.28222t-0.6096-0.1016q-0.34996 0-0.6096 0.1016t-0.44027 0.28222q-0.16933 0.16933-0.27093 0.4064-0.09031 0.23707-0.11289 0.51929-0.02258 0.19191-0.03387 0.44027 0 0.23707 0 0.49671 0 0.25964 0 0.508 0.01129 0.24836 0.03387 0.45156 0.04516 0.56444 0.38382 0.93698 0.34996 0.37253 1.0499 0.37253 0.69991 0 1.0386-0.37253t0.39511-0.93698z" style="font-variant-caps:normal;font-variant-east-asian:normal;font-variant-ligatures:normal;font-variant-numeric:normal"/>
   <path d="m23.905 7.0278q0.77893 0 1.4224 0.23707 0.64347 0.22578 1.1063 0.64347 0.47413 0.41769 0.73378 1.0047 0.27093 0.57573 0.3048 1.2644 0.01129 0.23707 0.01129 0.44027 0 0.19191 0 0.37253 0 0.18062 0 0.37253 0 0.19191-0.01129 0.41769-0.03387 0.69991-0.29351 1.2756-0.25964 0.57573-0.72249 0.99342-0.45156 0.41769-1.0837 0.65476-0.63218 0.22578-1.4111 0.22578h-3.048q-0.12418 0-0.21449-0.09031-0.09031-0.09031-0.09031-0.21449v-7.2926q0-0.12418 0.09031-0.21449 0.09031-0.090311 0.21449-0.090311zm1.4788 3.1044q-0.06773-1.2982-1.5353-1.2982h-1.1515v4.2898h1.2079q1.4224 0 1.4788-1.2982 0.01129-0.23707 0.01129-0.44027 0-0.21449 0-0.4064 0-0.2032 0-0.4064t-0.01129-0.44027z" style="font-variant-caps:normal;font-variant-east-asian:normal;font-variant-ligatures:normal;font-variant-numeric:normal"/>
   <path d="m28.51 9.9742q0.033866-0.63218 0.27093-1.1853 0.24836-0.56444 0.68862-0.97085 0.45156-0.41769 1.0837-0.65476 0.64347-0.24836 1.4788-0.24836 0.82409 0 1.4676 0.24836 0.64347 0.23707 1.0837 0.65476 0.45156 0.4064 0.68862 0.97085 0.24836 0.55316 0.28222 1.1853 0.02258 0.48542 0.02258 1.016 0 0.53058-0.02258 0.99342-0.03387 0.63218-0.28222 1.1966-0.23707 0.55316-0.68862 0.97085-0.44027 0.41769-1.0837 0.65476-0.64347 0.23707-1.4676 0.23707-0.83538 0-1.4788-0.23707-0.63218-0.23707-1.0837-0.65476-0.44027-0.41769-0.68862-0.97085-0.23707-0.56444-0.27093-1.1966-0.02258-0.46284-0.02258-0.99342 0-0.53058 0.02258-1.016zm4.9558 1.953q0.01129-0.2032 0.02258-0.45156t0.01129-0.508q0-0.25964-0.01129-0.49671-0.01129-0.24836-0.02258-0.44027-0.02258-0.28222-0.12418-0.51929-0.09031-0.23707-0.27093-0.4064-0.16933-0.18062-0.42898-0.28222t-0.6096-0.1016q-0.34996 0-0.6096 0.1016t-0.44027 0.28222q-0.16933 0.16933-0.27093 0.4064-0.09031 0.23707-0.11289 0.51929-0.02258 0.19191-0.03387 0.44027 0 0.23707 0 0.49671 0 0.25964 0 0.508 0.01129 0.24836 0.03387 0.45156 0.04516 0.56444 0.38382 0.93698 0.34996 0.37253 1.0499 0.37253 0.69991 0 1.0386-0.37253t0.39511-0.93698z" style="font-variant-caps:normal;font-variant-east-asian:normal;font-variant-ligatures:normal;font-variant-numeric:normal"/>
   <path d="m42.531 13.124q0.12418 0 0.21449 0.09031 0.09031 0.09031 0.09031 0.21449v1.1966q0 0.12418-0.09031 0.21449-0.09031 0.09031-0.21449 0.09031h-5.3509q-0.12418 0-0.21449-0.09031-0.09031-0.09031-0.09031-0.21449v-7.2926q0-0.12418 0.09031-0.21449 0.09031-0.090311 0.21449-0.090311h5.2606q0.12418 0 0.21449 0.090311 0.09031 0.090311 0.09031 0.21449v1.1966q0 0.12418-0.09031 0.21449-0.09031 0.090311-0.21449 0.090311h-3.477v1.2192h3.2286q0.12418 0 0.21449 0.09031 0.09031 0.09031 0.09031 0.21449v1.1966q0 0.12418-0.09031 0.21449-0.09031 0.09031-0.21449 0.09031h-3.2286v1.2644z" style="font-variant-caps:normal;font-variant-east-asian:normal;font-variant-ligatures:normal;font-variant-numeric:normal"/>
   <path d="m47.498 7.0278q0.74507 0 1.3321 0.15804 0.58702 0.15804 0.99342 0.47413 0.41769 0.31609 0.63218 0.8128 0.22578 0.48542 0.22578 1.1402 0 0.84667-0.34996 1.4111-0.34996 0.55316-0.99342 0.84667l1.3998 2.6868q0.03387 0.06773 0.03387 0.12418 0 0.1016-0.07902 0.18062-0.06773 0.06773-0.16933 0.06773h-1.5353q-0.22578 0-0.32738-0.1016-0.09031-0.1016-0.14676-0.2032l-1.2531-2.4158h-1.0386v2.4158q0 0.12418-0.09031 0.21449-0.09031 0.09031-0.21449 0.09031h-1.4788q-0.12418 0-0.21449-0.09031-0.09031-0.09031-0.09031-0.21449v-7.2926q0-0.12418 0.09031-0.21449 0.09031-0.090311 0.21449-0.090311zm-1.2756 3.4205h1.2756q0.47413 0 0.77893-0.18062 0.31609-0.18062 0.31609-0.65476 0-0.47413-0.31609-0.65476-0.3048-0.18062-0.77893-0.18062h-1.2756z" style="font-variant-caps:normal;font-variant-east-asian:normal;font-variant-ligatures:normal;font-variant-numeric:normal"/>
  </g>
 </g>
</svg>
